<?xml version="1.0" encoding="UTF-8" standalone="no"?>
<!DOCTYPE svg PUBLIC "-//W3C//DTD SVG 1.1//EN" "http://www.w3.org/Graphics/SVG/1.1/DTD/svg11.dtd">
<svg width="100%" height="100%" viewBox="0 0 128 128" version="1.1" xmlns="http://www.w3.org/2000/svg" xmlns:xlink="http://www.w3.org/1999/xlink" xml:space="preserve" xmlns:serif="http://www.serif.com/" style="fill-rule:evenodd;clip-rule:evenodd;stroke-linejoin:round;stroke-miterlimit:2;">
    <g transform="matrix(2.8561,0,0,2.8561,-144.239,-69.0418)">
        <g transform="matrix(0.340483,0,0,0.340483,52.4814,23.4288)">
            <g>
                <path d="M29,75L29,64L40,64L40,61L43,61L43,75L29,75Z" style="fill:rgb(69,35,15);fill-rule:nonzero;"/>
                <path d="M45,75L45,61L56,61L56,64L59,64L59,75L45,75Z" style="fill:rgb(69,35,15);fill-rule:nonzero;"/>
                <rect x="61" y="64" width="22" height="11" style="fill:rgb(69,35,15);fill-rule:nonzero;"/>
            </g>
        </g>
        <g transform="matrix(0.340483,0,0,0.340483,52.4814,23.4288)">
            <g>
                <path d="M45,67L45,45L56,45L56,64L59,64L59,67L56,67L56,64L48,64L48,67L45,67Z" style="fill:rgb(7,101,33);fill-rule:nonzero;"/>
                <path d="M53,43L53,29L64,29L64,40L56,40L56,43L53,43Z" style="fill:rgb(7,101,33);fill-rule:nonzero;"/>
                <path d="M85,43L85,29L96,29L96,32L99,32L99,40L88,40L88,43L85,43Z" style="fill:rgb(7,101,33);fill-rule:nonzero;"/>
            </g>
        </g>
        <g transform="matrix(0.340483,0,0,0.340483,52.4814,23.4288)">
            <g>
                <path d="M37,75L37,72L40,72L40,61L48,61L48,72L51,72L51,75L37,75Z" style="fill:rgb(82,50,24);fill-rule:nonzero;"/>
                <path d="M53,75L53,72L56,72L56,64L64,64L64,72L67,72L67,75L53,75Z" style="fill:rgb(82,50,24);fill-rule:nonzero;"/>
            </g>
        </g>
        <g transform="matrix(0.340483,0,0,0.340483,52.4814,23.4288)">
            <g>
                <path d="M40,64L40,45L45,45L45,40L48,40L48,29L53,29L53,24L56,24L56,21L67,21L67,24L64,24L64,32L56,32L56,48L48,48L48,64L40,64Z" style="fill:rgb(22,139,52);fill-rule:nonzero;"/>
                <path d="M96,40L96,32L88,32L88,35L77,35L77,27L72,27L72,24L69,24L69,16L88,16L88,24L96,24L96,32L104,32L104,40L96,40Z" style="fill:rgb(22,139,52);fill-rule:nonzero;"/>
            </g>
        </g>
        <g transform="matrix(0.340483,0,0,0.340483,52.4814,23.4288)">
            <g>
                <path d="M53,120L53,109L69,109L69,101L80,101L80,112L72,112L72,120L53,120Z" style="fill:rgb(128,60,39);fill-rule:nonzero;"/>
                <path d="M77,99L77,77L91,77L91,80L88,80L88,96L80,96L80,99L77,99Z" style="fill:rgb(128,60,39);fill-rule:nonzero;"/>
                <path d="M24,91L24,80L21,80L21,77L43,77L43,91L24,91Z" style="fill:rgb(128,60,39);fill-rule:nonzero;"/>
            </g>
        </g>
        <g transform="matrix(0.340483,0,0,0.340483,52.4814,23.4288)">
            <g>
                <path d="M80,56L80,48L72,48L72,37L83,37L83,45L88,45L88,56L80,56Z" style="fill:rgb(0,209,24);fill-rule:nonzero;"/>
            </g>
        </g>
        <g transform="matrix(0.340483,0,0,0.340483,52.4814,23.4288)">
            <g>
                <path d="M80,48L80,40L72,40L72,29L80,29L80,32L83,32L83,37L88,37L88,48L80,48Z" style="fill:rgb(1,255,2);fill-rule:nonzero;"/>
            </g>
        </g>
        <g transform="matrix(0.340483,0,0,0.340483,52.4814,23.4288)">
            <g>
                <path d="M40,120L40,112L32,112L32,101L43,101L43,109L45,109L45,101L53,101L53,93L61,93L61,91L37,91L37,88L40,88L40,80L37,80L37,77L83,77L83,80L80,80L80,91L75,91L75,93L80,93L80,104L72,104L72,112L61,112L61,107L59,107L59,112L56,112L56,120L40,120Z" style="fill:rgb(141,74,48);fill-rule:nonzero;"/>
                <path d="M32,99L32,96L24,96L24,88L35,88L35,99L32,99Z" style="fill:rgb(141,74,48);fill-rule:nonzero;"/>
            </g>
        </g>
        <g transform="matrix(0.340483,0,0,0.340483,52.4814,23.4288)">
            <g>
                <path d="M16,80L16,64L27,64L27,69L32,69L32,72L43,72L43,80L16,80Z" style="fill:rgb(137,79,49);fill-rule:nonzero;"/>
                <path d="M61,80L61,72L80,72L80,69L85,69L85,64L96,64L96,80L61,80Z" style="fill:rgb(137,79,49);fill-rule:nonzero;"/>
            </g>
        </g>
        <g transform="matrix(0.340483,0,0,0.340483,52.4814,23.4288)">
            <g>
                <rect x="40" y="40" width="8" height="8" style="fill:rgb(51,182,54);fill-rule:nonzero;"/>
                <path d="M48,32L48,24L56,24L56,16L72,16L72,24L75,24L75,27L72,27L72,24L56,24L56,32L48,32Z" style="fill:rgb(51,182,54);fill-rule:nonzero;"/>
            </g>
        </g>
        <g transform="matrix(0.340483,0,0,0.340483,52.4814,23.4288)">
            <g>
                <path d="M40,112L40,104L32,104L32,88L64,88L64,96L72,96L72,88L80,88L80,96L72,96L72,104L64,104L64,112L56,112L56,104L48,104L48,112L40,112ZM64,104L64,96L56,96L56,104L64,104Z" style="fill:rgb(151,95,59);fill-rule:nonzero;"/>
                <rect x="40" y="72" width="24" height="8" style="fill:rgb(151,95,59);fill-rule:nonzero;"/>
                <rect x="24" y="64" width="8" height="8" style="fill:rgb(151,95,59);fill-rule:nonzero;"/>
                <rect x="80" y="64" width="8" height="8" style="fill:rgb(151,95,59);fill-rule:nonzero;"/>
            </g>
        </g>
        <g transform="matrix(0.340483,0,0,0.340483,52.4814,23.4288)">
            <g>
                <path d="M80,40L80,32L72,32L72,24L80,24L80,32L88,32L88,40L80,40Z" style="fill:rgb(145,255,129);fill-rule:nonzero;"/>
            </g>
        </g>
    </g>

</svg>
